<?xml version="1.0" encoding="UTF-8"?>
<svg width="201px" height="54px" viewBox="0 0 201 54" version="1.1" xmlns="http://www.w3.org/2000/svg" xmlns:xlink="http://www.w3.org/1999/xlink">
    <!-- Generator: Sketch 53.2 (72643) - https://sketchapp.com -->
    <title>Group 3</title>
    <desc>Created with Sketch.</desc>
    <g id="Page-1" stroke="none" stroke-width="1" fill="none" fill-rule="evenodd">
        <g id="Technologies" transform="translate(-207.000000, -370.000000)">
            <g id="Group-3" transform="translate(207.000000, 370.000000)">
                <path d="M101.195592,7.99444343e-05 C101.056793,0.00177779495 100.916401,0.0349639811 100.79253,0.107750833 C100.545206,0.253212478 100.389465,0.520355674 100.389465,0.80762519 L100.389465,21.4000188 C100.389465,21.602355 100.295413,21.7831591 100.120758,21.8846328 C99.9456615,21.9863613 99.7319936,21.9863613 99.5564702,21.8846328 L96.1976155,19.9465195 C95.6971734,19.6574401 95.0859179,19.6576133 94.585364,19.9465195 L81.1768153,27.6989661 C80.6755122,27.9886499 80.3706878,28.5459626 80.3706878,29.1255884 L80.3706878,44.6304815 C80.3706878,45.2096727 80.6759427,45.7400268 81.1768153,46.0302269 L94.585364,53.7826734 C95.086667,54.0724422 95.6963124,54.0724422 96.1976155,53.7826734 L109.606164,46.0302269 C110.107037,45.7400268 110.412292,45.2096727 110.412292,44.6304815 L110.412292,5.97592291 C110.412292,5.38791653 110.09199,4.83609813 109.579294,4.54925647 L101.598654,0.0808331107 C101.473329,0.0108035683 101.334391,-0.00142774682 101.195592,0.000124088548 L101.195592,7.99444343e-05 Z M14.9401891,19.3542345 C14.6844886,19.3645575 14.4442588,19.4093603 14.2146761,19.5427027 L0.806124057,27.2951493 C0.306498933,27.5844868 -4.26325641e-13,28.1114826 -4.26325641e-13,28.694898 L0.0268127246,49.5026334 C0.0268127246,49.7920592 0.175862322,50.0608085 0.429878143,50.2025926 C0.678850053,50.351871 0.987870942,50.351871 1.2360022,50.2025926 L9.18977154,45.6264101 C9.69360332,45.3265629 10.022766,44.8049968 10.022766,44.2266648 L10.022766,34.5092313 C10.022766,33.9296055 10.3271429,33.397618 10.8288934,33.1094826 L14.2146185,31.144499 C14.4673157,30.9981477 14.7386056,30.9291505 15.0207426,30.9291505 C15.2970899,30.9291505 15.5811624,30.9980628 15.82687,31.144499 L19.2125951,33.1094826 C19.7143287,33.397618 20.0187192,33.9296055 20.0187192,34.5092313 L20.0187192,44.2266648 C20.0187192,44.8049968 20.3511698,45.3299246 20.851717,45.6264101 L28.8054863,50.2025926 C29.0552785,50.351871 29.3638655,50.351871 29.6116104,50.2025926 C29.8585044,50.0608085 30.0146724,49.7920592 30.0146724,49.5026334 L30.0414851,28.694898 C30.0414851,28.1114826 29.7383827,27.5844868 29.2353611,27.2951493 L15.8268395,19.5427027 C15.60005,19.4093603 15.3587558,19.3647408 15.1013265,19.3542345 L14.940101,19.3542345 L14.9401891,19.3542345 Z M135.429045,19.5427027 C135.148918,19.5423632 134.874428,19.6133367 134.622918,19.7580479 L121.214369,27.5104945 C120.713496,27.8002632 120.408245,28.3306174 120.408245,28.9102432 L120.408245,44.415133 C120.408245,44.9981171 120.736069,45.5267497 121.241239,45.8148817 L134.542307,53.4058185 C135.033505,53.6868026 135.633262,53.7078186 136.127684,53.4325087 L144.188938,48.9371235 C144.444747,48.7949931 144.617796,48.5295171 144.618871,48.2372492 C144.620566,47.9448963 144.468394,47.6828636 144.215809,47.5373748 L130.726646,39.7849282 C130.47406,39.6406483 130.296713,39.3482954 130.296713,39.0580954 L130.296713,34.2128171 C130.296713,33.9231333 130.476209,33.657654 130.726646,33.5130277 L134.918498,31.0903036 C135.16786,30.9457622 135.474186,30.9457622 135.724622,31.0903036 L139.916475,33.5130277 C140.166911,33.657654 140.319537,33.9231333 140.319537,34.2128171 L140.319537,38.0352899 C140.319537,38.3254016 140.472163,38.5904496 140.722599,38.7350759 C140.97411,38.8801335 141.27829,38.8807345 141.528726,38.7350759 L149.563107,34.0513923 C150.06183,33.7611923 150.369231,33.2294595 150.369231,32.651647 L150.369231,28.9099715 C150.369231,28.3320674 150.062905,27.8004228 149.563107,27.5102228 L136.235169,19.7577762 C135.98419,19.6120328 135.709172,19.5427774 135.429045,19.5424311 L135.429045,19.5427027 Z M95.3377473,31.1175372 C95.4076536,31.1175372 95.4899426,31.1347534 95.5527135,31.1709413 L100.147628,33.8358875 C100.272309,33.9082431 100.362594,34.0415006 100.362594,34.1857806 L100.362594,39.515588 C100.362594,39.6602992 100.27317,39.7936416 100.147628,39.8655693 L95.5527135,42.5304272 C95.4276022,42.6019237 95.2747628,42.6019237 95.1496515,42.5304272 L90.5547369,39.8655693 C90.4296255,39.7932137 90.3397707,39.6602992 90.3397707,39.515588 L90.3397707,34.1857806 C90.3397707,34.0415006 90.430056,33.9085895 90.5547369,33.8358875 L95.1496515,31.1713726 C95.2124224,31.1351948 95.2678309,31.1179684 95.3377473,31.1179684 L95.3377473,31.1175372 Z" id="path22" fill="#FFFFFF"></path>
                <path d="M175.460952,19.1076923 C174.995457,19.1076923 174.542888,19.2026653 174.142513,19.4262537 L161.469346,26.6469584 C160.649224,27.1128218 160.150907,27.9934084 160.150907,28.9299776 L160.150907,43.3448843 C160.150907,44.2809444 160.649224,45.1605097 161.469346,45.6278197 L164.778899,47.5126789 C166.386856,48.2945519 166.979888,48.2824894 167.711755,48.2824894 C170.092481,48.2824894 171.451818,46.8572915 171.451818,44.3801637 L171.451818,30.1511275 C171.451818,29.9499663 171.275309,29.8059763 171.075121,29.8059763 L169.487614,29.8059763 C169.284195,29.8059763 169.110914,29.9499663 169.110914,30.1511275 L169.110914,44.3801637 C169.110914,45.4781368 167.951764,46.5823118 166.070432,45.6544061 L162.626347,43.6634457 C162.504726,43.5980362 162.411088,43.4825884 162.411088,43.3448843 L162.411088,28.9299776 C162.411088,28.793124 162.50365,28.6541473 162.626347,28.5849135 L175.272603,21.3907115 C175.390992,21.3236008 175.531984,21.3236008 175.6493,21.3907115 L188.295557,28.5849135 C188.416102,28.6562705 188.510812,28.7889614 188.510812,28.9299776 L188.510812,43.3448843 C188.510812,43.4825884 188.440812,43.6236046 188.322464,43.6899518 L175.6493,50.8841537 C175.540595,50.9478654 175.390992,50.9478654 175.272603,50.8841537 L172.016863,48.9727885 C171.919997,48.9167223 171.787617,48.9209686 171.693979,48.9727885 C170.79529,49.4754355 170.626313,49.5338794 169.783588,49.8222845 C169.575869,49.8936415 169.260516,50.0046722 169.891217,50.3532191 L174.142513,52.8220217 C174.547192,53.0530814 174.998152,53.1670858 175.460952,53.1670858 C175.930207,53.1670858 176.374712,53.0530814 176.779391,52.8220217 L189.452555,45.6278197 C190.27268,45.1571977 190.770994,44.2809444 190.770994,43.3448843 L190.770994,28.9299776 C190.770994,27.9934084 190.27268,27.1147775 189.452555,26.6469584 L176.779391,19.4262537 C176.382244,19.2026653 175.926447,19.1076923 175.460952,19.1076923 L175.460952,19.1076923 Z M54.9178972,19.399664 C54.6381171,19.399664 54.3612493,19.4693231 54.1106905,19.6120372 L40.6841332,27.2309888 C40.1821569,27.5164169 39.8769231,28.0668049 39.8769231,28.6379222 L39.8769231,43.9288276 C39.8769231,44.5006247 40.1824827,45.0232341 40.6841332,45.3092583 L54.1106905,52.9547127 C54.6126668,53.2407368 55.223131,53.2407368 55.7251073,52.9547127 L69.1516646,45.3092583 C69.6527788,45.0232341 69.9588747,44.5006247 69.9588747,43.9288276 L69.9588747,28.6379222 C69.9588747,28.0659576 69.6536409,27.5164169 69.1516646,27.2309888 L55.7251073,19.6120372 C55.4745486,19.4693231 55.1976773,19.399664 54.9178972,19.399664 Z M194.268895,19.479517 L194.268895,19.8511709 L195.318267,19.8511709 L195.318267,22.5854391 L195.748777,22.5854391 L195.748777,19.8511709 L196.825055,19.8511709 L196.825055,19.479517 L194.268895,19.479517 L194.268895,19.479517 Z M197.201751,19.479517 L197.201751,22.5854391 L197.605355,22.5854391 L197.605355,20.7537594 C197.605355,20.6790033 197.608783,20.5633881 197.605355,20.4086953 C197.600196,20.2511124 197.605355,20.1137498 197.605355,20.0369543 L197.605355,19.9571046 L198.493284,22.5851846 L198.923794,22.5851846 L199.83863,19.9571046 C199.83863,20.1242853 199.81599,20.2856891 199.811781,20.4349434 C199.810084,20.5802059 199.811781,20.6892842 199.811781,20.7535049 L199.811781,22.5851846 L200.215385,22.5851846 L200.215385,19.4792625 L199.623433,19.4792625 L198.708597,22.1074295 L197.820667,19.4792625 L197.201809,19.4792625 L197.201751,19.479517 Z M178.851224,29.4079872 C175.242466,29.4079872 173.093141,30.923232 173.093141,33.4430876 C173.093141,36.1766793 175.226322,36.9277162 178.689782,37.2658148 C182.833452,37.6660141 183.156333,38.2662663 183.156333,39.0709918 C183.156333,40.4667969 182.028394,41.0619522 179.362457,41.0619522 C176.013082,41.0619522 175.276907,40.2370098 175.030439,38.593153 C175.001418,38.4168802 174.863617,38.2745915 174.680652,38.2745915 L173.039328,38.2745915 C172.836989,38.2745915 172.662631,38.446273 172.662631,38.6462454 C172.662631,40.7504434 173.822857,43.2388702 179.362457,43.2388702 C183.372667,43.2388702 185.685585,41.6858237 185.685585,38.9648068 C185.685585,36.2673189 183.817168,35.5432937 179.927502,35.0358914 C175.996936,34.522796 175.622394,34.2716869 175.622394,33.3634924 C175.622394,32.6138118 175.939895,31.6113241 178.851224,31.6113241 C181.451509,31.6113241 182.412626,32.1645988 182.806542,33.894427 C182.840984,34.0570197 182.986283,34.1863953 183.156333,34.1863953 L184.797656,34.1863953 C184.898826,34.1863953 184.996768,34.1252322 185.066727,34.0536207 C185.135607,33.9771667 185.18404,33.891028 185.174353,33.7882388 C184.920352,30.8091438 182.906636,29.4079872 178.851224,29.4079872 L178.851224,29.4079872 Z M135.208183,33.044931 C135.15454,33.044931 135.095174,33.044931 135.046741,33.0712528 L132.463676,34.5578684 C132.36681,34.6122368 132.302234,34.7134085 132.302234,34.823334 L132.302234,37.7434727 C132.302234,37.8533983 132.36681,37.954148 132.463676,38.0089417 L135.046741,39.4689675 C135.143604,39.5241831 135.246929,39.5241831 135.342715,39.4689675 L137.925781,38.0089417 C138.021571,37.9545733 138.087223,37.8533983 138.087223,37.7434727 L138.087223,34.823334 C138.087223,34.7134085 138.021615,34.612575 137.925781,34.5578684 L135.342715,33.0712528 C135.294842,33.0432231 135.261867,33.044931 135.208183,33.044931 Z" id="path28" fill="#83CD29"></path>
            </g>
        </g>
    </g>
</svg>